<svg width="112" height="112" viewBox="0 0 112 112" fill="none" xmlns="http://www.w3.org/2000/svg">
<path d="M37 39.1233C37 19.9023 37 10.3612 54.3266 10.0101C54.8788 9.99887 55.3391 10.4477 55.3391 11V19.8732C55.3391 20.4254 54.8908 20.8705 54.3392 20.8981C44.5665 21.3885 37.1327 29.0443 37 39.1233Z" fill="url(#paint0_linear_94_2143)"/>
<ellipse cx="55.5" cy="38.959" rx="18.5" ry="18.8936" fill="url(#paint1_linear_94_2143)"/>
<path d="M26.916 92.36C24.324 92.36 22.356 91.46 21.012 89.66V91.172C21.012 91.412 20.928 91.616 20.76 91.784C20.616 91.928 20.424 92 20.184 92H18.528C18.288 92 18.084 91.928 17.916 91.784C17.772 91.616 17.7 91.412 17.7 91.172V67.268C17.7 67.028 17.772 66.836 17.916 66.692C18.084 66.524 18.288 66.44 18.528 66.44H20.292C20.532 66.44 20.724 66.524 20.868 66.692C21.012 66.836 21.084 67.028 21.084 67.268V75.548C22.5 73.796 24.444 72.92 26.916 72.92C29.412 72.92 31.296 73.748 32.568 75.404C33.84 77.036 34.524 79.088 34.62 81.56C34.644 81.824 34.656 82.184 34.656 82.64C34.656 83.096 34.644 83.456 34.62 83.72C34.524 86.216 33.84 88.28 32.568 89.912C31.296 91.544 29.412 92.36 26.916 92.36ZM26.16 89.444C27.864 89.444 29.1 88.916 29.868 87.86C30.66 86.804 31.092 85.412 31.164 83.684C31.188 83.444 31.2 83.096 31.2 82.64C31.2 78.104 29.52 75.836 26.16 75.836C24.552 75.836 23.316 76.364 22.452 77.42C21.588 78.476 21.132 79.712 21.084 81.128L21.048 82.532L21.084 83.9C21.156 85.412 21.6 86.72 22.416 87.824C23.256 88.904 24.504 89.444 26.16 89.444ZM39.9382 92C39.6982 92 39.4942 91.928 39.3262 91.784C39.1822 91.616 39.1102 91.412 39.1102 91.172V67.268C39.1102 67.028 39.1822 66.836 39.3262 66.692C39.4942 66.524 39.6982 66.44 39.9382 66.44H41.6302C41.8702 66.44 42.0622 66.524 42.2062 66.692C42.3742 66.836 42.4582 67.028 42.4582 67.268V91.172C42.4582 91.412 42.3742 91.616 42.2062 91.784C42.0622 91.928 41.8702 92 41.6302 92H39.9382ZM55.4961 92.36C52.8561 92.36 50.8041 91.616 49.3401 90.128C47.9001 88.64 47.1321 86.66 47.0361 84.188L47.0001 82.64L47.0361 81.092C47.1321 78.644 47.9121 76.676 49.3761 75.188C50.8401 73.676 52.8801 72.92 55.4961 72.92C58.1121 72.92 60.1521 73.676 61.6161 75.188C63.0801 76.676 63.8601 78.644 63.9561 81.092C63.9801 81.356 63.9921 81.872 63.9921 82.64C63.9921 83.408 63.9801 83.924 63.9561 84.188C63.8601 86.66 63.0801 88.64 61.6161 90.128C60.1761 91.616 58.1361 92.36 55.4961 92.36ZM55.4961 89.588C57.0081 89.588 58.1961 89.108 59.0601 88.148C59.9481 87.188 60.4281 85.808 60.5001 84.008C60.5241 83.768 60.5361 83.312 60.5361 82.64C60.5361 81.968 60.5241 81.512 60.5001 81.272C60.4281 79.472 59.9481 78.092 59.0601 77.132C58.1961 76.172 57.0081 75.692 55.4961 75.692C53.9841 75.692 52.7841 76.172 51.8961 77.132C51.0081 78.092 50.5401 79.472 50.4921 81.272L50.4561 82.64L50.4921 84.008C50.5401 85.808 51.0081 87.188 51.8961 88.148C52.7841 89.108 53.9841 89.588 55.4961 89.588ZM76.1679 99.92C74.1999 99.92 72.6159 99.584 71.4159 98.912C70.2159 98.264 69.3639 97.52 68.8599 96.68C68.3559 95.84 68.0799 95.084 68.0319 94.412C68.0079 94.172 68.0799 93.968 68.2479 93.8C68.4399 93.632 68.6439 93.548 68.8599 93.548H70.5879C70.8039 93.548 70.9839 93.596 71.1279 93.692C71.2719 93.812 71.3919 94.016 71.4879 94.304C71.7759 95.072 72.2439 95.732 72.8919 96.284C73.5639 96.86 74.5959 97.148 75.9879 97.148C77.7639 97.148 79.0719 96.764 79.9119 95.996C80.7519 95.252 81.1719 93.92 81.1719 92V89.552C80.5479 90.344 79.7559 90.98 78.7959 91.46C77.8359 91.916 76.6959 92.144 75.3759 92.144C72.8319 92.144 70.9239 91.34 69.6519 89.732C68.4039 88.1 67.7439 86.036 67.6719 83.54L67.6359 82.532L67.6719 81.56C67.7439 79.088 68.4159 77.036 69.6879 75.404C70.9599 73.748 72.8559 72.92 75.3759 72.92C77.8959 72.92 79.8639 73.844 81.2799 75.692V74.144C81.2799 73.904 81.3519 73.7 81.4959 73.532C81.6639 73.364 81.8679 73.28 82.1079 73.28H83.7639C84.0039 73.28 84.2079 73.364 84.3759 73.532C84.5439 73.7 84.6279 73.904 84.6279 74.144V91.604C84.6279 97.148 81.8079 99.92 76.1679 99.92ZM76.0959 89.264C77.7279 89.264 78.9639 88.724 79.8039 87.644C80.6439 86.564 81.0999 85.28 81.1719 83.792C81.1959 83.576 81.2079 83.156 81.2079 82.532C81.2079 81.932 81.1959 81.524 81.1719 81.308C81.0999 79.82 80.6439 78.536 79.8039 77.456C78.9879 76.376 77.7519 75.836 76.0959 75.836C74.3919 75.836 73.1559 76.364 72.3879 77.42C71.6199 78.476 71.1999 79.868 71.1279 81.596L71.0919 82.532L71.1279 83.504C71.1999 85.208 71.6199 86.6 72.3879 87.68C73.1559 88.736 74.3919 89.264 76.0959 89.264Z" fill="#FAFCFC"/>
<path d="M90.5564 92C90.3164 92 90.1124 91.928 89.9444 91.784C89.8004 91.616 89.7284 91.412 89.7284 91.172V88.58C89.7284 88.34 89.8004 88.148 89.9444 88.004C90.1124 87.836 90.3164 87.752 90.5564 87.752H93.1484C93.3884 87.752 93.5924 87.836 93.7604 88.004C93.9284 88.148 94.0124 88.34 94.0124 88.58V91.172C94.0124 91.412 93.9284 91.616 93.7604 91.784C93.5924 91.928 93.3884 92 93.1484 92H90.5564Z" fill="url(#paint2_linear_94_2143)"/>
<defs>
<linearGradient id="paint0_linear_94_2143" x1="42.4779" y1="9.22209" x2="48.8451" y2="28.982" gradientUnits="userSpaceOnUse">
<stop stop-color="#5390E3"/>
<stop offset="1" stop-color="#1357B3"/>
</linearGradient>
<linearGradient id="paint1_linear_94_2143" x1="71.3571" y1="23.5006" x2="39.7061" y2="54.7325" gradientUnits="userSpaceOnUse">
<stop stop-color="#5390E3"/>
<stop offset="1" stop-color="#1357B3"/>
</linearGradient>
<linearGradient id="paint2_linear_94_2143" x1="91.1429" y1="61.9091" x2="61.6434" y2="118.6" gradientUnits="userSpaceOnUse">
<stop stop-color="#5390E3"/>
<stop offset="1" stop-color="#1357B3"/>
</linearGradient>
</defs>
</svg>
