<svg width="32" height="32" viewBox="0 0 32 32" fill="none" xmlns="http://www.w3.org/2000/svg">
<g id="icon-user">
<g id="Vector">
<path d="M24 25V23C24 21.9391 23.5786 20.9217 22.8284 20.1716C22.0783 19.4214 21.0609 19 20 19H12C10.9391 19 9.92172 19.4214 9.17157 20.1716C8.42143 20.9217 8 21.9391 8 23V25" fill="url(#paint0_linear_52_225)"/>
<path d="M24 25V23C24 21.9391 23.5786 20.9217 22.8284 20.1716C22.0783 19.4214 21.0609 19 20 19H12C10.9391 19 9.92172 19.4214 9.17157 20.1716C8.42143 20.9217 8 21.9391 8 23V25" stroke="url(#paint1_linear_52_225)" stroke-linejoin="round"/>
</g>
<path id="Vector_2" d="M16 15C18.2091 15 20 13.2091 20 11C20 8.79086 18.2091 7 16 7C13.7909 7 12 8.79086 12 11C12 13.2091 13.7909 15 16 15Z" fill="url(#paint2_linear_52_225)" stroke="url(#paint3_linear_52_225)" stroke-linecap="round" stroke-linejoin="round"/>
</g>
<defs>
<linearGradient id="paint0_linear_52_225" x1="22.8571" y1="19.5455" x2="19.5715" y2="28.3751" gradientUnits="userSpaceOnUse">
<stop stop-color="#5390E3"/>
<stop offset="1" stop-color="#1357B3"/>
</linearGradient>
<linearGradient id="paint1_linear_52_225" x1="22.8571" y1="19.5455" x2="19.5715" y2="28.3751" gradientUnits="userSpaceOnUse">
<stop stop-color="#5390E3"/>
<stop offset="1" stop-color="#1357B3"/>
</linearGradient>
<linearGradient id="paint2_linear_52_225" x1="19.4286" y1="7.72727" x2="12.7273" y2="14.4805" gradientUnits="userSpaceOnUse">
<stop stop-color="#5390E3"/>
<stop offset="1" stop-color="#1357B3"/>
</linearGradient>
<linearGradient id="paint3_linear_52_225" x1="19.4286" y1="7.72727" x2="12.7273" y2="14.4805" gradientUnits="userSpaceOnUse">
<stop stop-color="#5390E3"/>
<stop offset="1" stop-color="#1357B3"/>
</linearGradient>
</defs>
</svg>
