<svg width="32" height="32" viewBox="0 0 32 32" fill="none" xmlns="http://www.w3.org/2000/svg">
<path fill-rule="evenodd" clip-rule="evenodd" d="M21 6H11C8.23858 6 6 8.23858 6 11V21C6 23.7614 8.23858 26 11 26H21C23.7614 26 26 23.7614 26 21V11C26 8.23858 23.7614 6 21 6ZM20.9459 15.2666C21.1002 16.3069 20.9225 17.3694 20.4381 18.3028C19.9537 19.2363 19.1873 19.9933 18.2479 20.4662C17.3085 20.939 16.244 21.1036 15.2057 20.9365C14.1673 20.7694 13.2081 20.2792 12.4645 19.5355C11.7208 18.7919 11.2306 17.8327 11.0635 16.7943C10.8964 15.756 11.061 14.6915 11.5338 13.7521C12.0067 12.8127 12.7637 12.0463 13.6972 11.5619C14.6306 11.0775 15.6931 10.8998 16.7334 11.0541C17.7946 11.2114 18.777 11.7059 19.5355 12.4645C20.2941 13.223 20.7886 14.2054 20.9459 15.2666ZM22.5 12C23.3284 12 24 11.3284 24 10.5C24 9.67157 23.3284 9 22.5 9C21.6716 9 21 9.67157 21 10.5C21 11.3284 21.6716 12 22.5 12Z" fill="url(#paint0_linear_3406_1463)"/>
<path d="M20.4381 18.3028L19.9943 18.0726V18.0726L20.4381 18.3028ZM20.9459 15.2666L20.4513 15.3399L20.9459 15.2666ZM18.2479 20.4662L18.4727 20.9128L18.2479 20.4662ZM11.0635 16.7943L10.5699 16.8738V16.8738L11.0635 16.7943ZM11.5338 13.7521L11.0872 13.5273V13.5273L11.5338 13.7521ZM16.7334 11.0541L16.8068 10.5595L16.7334 11.0541ZM19.5355 12.4645L19.182 12.818H19.182L19.5355 12.4645ZM11 6.5H21V5.5H11V6.5ZM6.5 11C6.5 8.51472 8.51472 6.5 11 6.5V5.5C7.96243 5.5 5.5 7.96243 5.5 11H6.5ZM6.5 21V11H5.5V21H6.5ZM11 25.5C8.51472 25.5 6.5 23.4853 6.5 21H5.5C5.5 24.0376 7.96243 26.5 11 26.5V25.5ZM21 25.5H11V26.5H21V25.5ZM25.5 21C25.5 23.4853 23.4853 25.5 21 25.5V26.5C24.0376 26.5 26.5 24.0376 26.5 21H25.5ZM25.5 11V21H26.5V11H25.5ZM21 6.5C23.4853 6.5 25.5 8.51472 25.5 11H26.5C26.5 7.96243 24.0376 5.5 21 5.5V6.5ZM20.8819 18.5331C21.4147 17.5063 21.6102 16.3376 21.4405 15.1932L20.4513 15.3399C20.5902 16.2762 20.4302 17.2324 19.9943 18.0726L20.8819 18.5331ZM18.4727 20.9128C19.5061 20.3927 20.3491 19.56 20.8819 18.5331L19.9943 18.0726C19.5584 18.9127 18.8686 19.594 18.0232 20.0196L18.4727 20.9128ZM15.1262 21.4301C16.2684 21.6139 17.4394 21.4329 18.4727 20.9128L18.0232 20.0196C17.1777 20.4451 16.2196 20.5932 15.2851 20.4428L15.1262 21.4301ZM12.1109 19.8891C12.9289 20.7071 13.9841 21.2464 15.1262 21.4301L15.2851 20.4428C14.3506 20.2925 13.4873 19.8513 12.818 19.182L12.1109 19.8891ZM10.5699 16.8738C10.7536 18.0159 11.2929 19.0711 12.1109 19.8891L12.818 19.182C12.1487 18.5127 11.7075 17.6494 11.5572 16.7149L10.5699 16.8738ZM11.0872 13.5273C10.5671 14.5606 10.3861 15.7316 10.5699 16.8738L11.5572 16.7149C11.4068 15.7804 11.5549 14.8223 11.9804 13.9768L11.0872 13.5273ZM13.4669 11.1181C12.44 11.6509 11.6073 12.4939 11.0872 13.5273L11.9804 13.9768C12.406 13.1314 13.0873 12.4416 13.9274 12.0057L13.4669 11.1181ZM16.8068 10.5595C15.6624 10.3898 14.4937 10.5853 13.4669 11.1181L13.9274 12.0057C14.7676 11.5698 15.7238 11.4098 16.6601 11.5487L16.8068 10.5595ZM19.8891 12.1109C19.0547 11.2765 17.974 10.7326 16.8068 10.5595L16.6601 11.5487C17.6151 11.6903 18.4993 12.1353 19.182 12.818L19.8891 12.1109ZM21.4405 15.1932C21.2674 14.026 20.7235 12.9453 19.8891 12.1109L19.182 12.818C19.8647 13.5007 20.3097 14.3849 20.4513 15.3399L21.4405 15.1932ZM23.5 10.5C23.5 11.0523 23.0523 11.5 22.5 11.5V12.5C23.6046 12.5 24.5 11.6046 24.5 10.5H23.5ZM22.5 9.5C23.0523 9.5 23.5 9.94772 23.5 10.5H24.5C24.5 9.39543 23.6046 8.5 22.5 8.5V9.5ZM21.5 10.5C21.5 9.94772 21.9477 9.5 22.5 9.5V8.5C21.3954 8.5 20.5 9.39543 20.5 10.5H21.5ZM22.5 11.5C21.9477 11.5 21.5 11.0523 21.5 10.5H20.5C20.5 11.6046 21.3954 12.5 22.5 12.5V11.5Z" fill="url(#paint1_linear_3406_1463)"/>
<defs>
<linearGradient id="paint0_linear_3406_1463" x1="24.5714" y1="7.81818" x2="7.81818" y2="24.7013" gradientUnits="userSpaceOnUse">
<stop stop-color="#5390E3"/>
<stop offset="1" stop-color="#1357B3"/>
</linearGradient>
<linearGradient id="paint1_linear_3406_1463" x1="24.5714" y1="7.81818" x2="7.81818" y2="24.7013" gradientUnits="userSpaceOnUse">
<stop stop-color="#5390E3"/>
<stop offset="1" stop-color="#1357B3"/>
</linearGradient>
</defs>
</svg>
