<svg width="32" height="32" viewBox="0 0 32 32" fill="none" xmlns="http://www.w3.org/2000/svg">
<path fill-rule="evenodd" clip-rule="evenodd" d="M25.8392 9.15941C26.1799 9.51057 26.4218 9.94541 26.5406 10.42C26.8578 12.1787 27.0118 13.963 27.0006 15.75C27.0069 17.5103 26.8529 19.2676 26.5406 21C26.4218 21.4746 26.1799 21.9094 25.8392 22.2606C25.4986 22.6118 25.0713 22.8668 24.6006 23C22.8806 23.46 16.0006 23.46 16.0006 23.46C16.0006 23.46 9.12057 23.46 7.40057 23C6.93939 22.8738 6.51855 22.6308 6.17872 22.2945C5.83888 21.9581 5.59153 21.5398 5.46057 21.08C5.14334 19.3213 4.98935 17.537 5.00057 15.75C4.99181 13.9763 5.14579 12.2056 5.46057 10.46C5.57936 9.98541 5.82129 9.55057 6.16192 9.19941C6.50255 8.84824 6.92982 8.59318 7.40057 8.46C9.12057 8 16.0006 8 16.0006 8C16.0006 8 22.8806 8 24.6006 8.42C25.0713 8.55318 25.4986 8.80824 25.8392 9.15941ZM14.4903 19.1617C13.8237 19.5367 13 19.055 13 18.2902V12.7098C13 11.945 13.8237 11.4633 14.4903 11.8383L19.4505 14.6284C20.1302 15.0107 20.1302 15.9893 19.4505 16.3716L14.4903 19.1617Z" fill="url(#paint0_linear_3406_1469)"/>
<path d="M26.5406 10.42L27.0326 10.3312C27.0307 10.3203 27.0283 10.3094 27.0256 10.2986L26.5406 10.42ZM27.0006 15.75L26.5006 15.7469L26.5006 15.7518L27.0006 15.75ZM26.5406 21L27.0256 21.1214C27.0283 21.1106 27.0307 21.0997 27.0326 21.0887L26.5406 21ZM24.6006 23L24.7298 23.4831L24.7367 23.4811L24.6006 23ZM16.0006 23.46V22.96V23.46ZM7.40057 23L7.26861 23.4823L7.27139 23.483L7.40057 23ZM6.17872 22.2945L5.827 22.6499L6.17872 22.2945ZM5.46057 21.08L4.96851 21.1688C4.97144 21.185 4.97517 21.2011 4.97969 21.2169L5.46057 21.08ZM5.00057 15.75L5.50059 15.7531L5.50057 15.7475L5.00057 15.75ZM5.46057 10.46L4.97553 10.3386C4.97283 10.3494 4.97049 10.3603 4.96851 10.3713L5.46057 10.46ZM6.16192 9.19941L5.80302 8.85128L5.80302 8.85128L6.16192 9.19941ZM7.40057 8.46L7.27138 7.97693L7.26446 7.97888L7.40057 8.46ZM24.6006 8.42L24.7367 7.93888C24.7309 7.93724 24.725 7.9357 24.7192 7.93427L24.6006 8.42ZM14.4903 19.1617L14.2451 18.7259L14.4903 19.1617ZM14.4903 11.8383L14.7354 11.4025L14.4903 11.8383ZM19.4505 14.6284L19.2054 15.0642L19.4505 14.6284ZM19.4505 16.3716L19.6957 16.8074L19.6957 16.8074L19.4505 16.3716ZM27.0256 10.2986C26.8855 9.73865 26.6 9.2256 26.1981 8.81128L25.4803 9.50754C25.7597 9.79554 25.9581 10.1522 26.0555 10.5414L27.0256 10.2986ZM27.5006 15.7531C27.512 13.9353 27.3553 12.1203 27.0326 10.3312L26.0485 10.5088C26.3603 12.2371 26.5116 13.9906 26.5006 15.7469L27.5006 15.7531ZM27.0326 21.0887C27.3504 19.3264 27.507 17.5389 27.5006 15.7482L26.5006 15.7518C26.5068 17.4818 26.3555 19.2087 26.0485 20.9113L27.0326 21.0887ZM26.1981 22.6087C26.6 22.1944 26.8855 21.6814 27.0256 21.1214L26.0555 20.8786C25.9581 21.2678 25.7597 21.6245 25.4803 21.9125L26.1981 22.6087ZM24.7367 23.4811C25.2921 23.324 25.7962 23.023 26.1981 22.6087L25.4803 21.9125C25.201 22.2005 24.8505 22.4097 24.4645 22.5189L24.7367 23.4811ZM16.0006 23.46C16.0006 23.96 16.0006 23.96 16.0007 23.96C16.0007 23.96 16.0008 23.96 16.001 23.96C16.0012 23.96 16.0015 23.96 16.002 23.96C16.0028 23.96 16.0041 23.96 16.0058 23.96C16.0092 23.96 16.0143 23.96 16.0209 23.96C16.0342 23.96 16.0538 23.9599 16.0794 23.9599C16.1306 23.9598 16.2057 23.9595 16.3019 23.9591C16.4943 23.9582 16.7707 23.9564 17.1078 23.9528C17.7817 23.9456 18.6988 23.9312 19.6704 23.9023C20.6412 23.8734 21.6705 23.83 22.5676 23.7646C23.4507 23.7002 24.2479 23.6119 24.7298 23.483L24.4714 22.517C24.0932 22.6181 23.3855 22.7023 22.4948 22.7673C21.6181 22.8312 20.6049 22.8741 19.6407 22.9027C18.6773 22.9313 17.7669 22.9457 17.0971 22.9528C16.7623 22.9564 16.4878 22.9582 16.2972 22.9591C16.2019 22.9596 16.1276 22.9598 16.0772 22.9599C16.0519 22.9599 16.0327 22.96 16.0198 22.96C16.0134 22.96 16.0085 22.96 16.0053 22.96C16.0037 22.96 16.0025 22.96 16.0017 22.96C16.0013 22.96 16.001 22.96 16.0008 22.96C16.0007 22.96 16.0007 22.96 16.0006 22.96C16.0006 22.96 16.0006 22.96 16.0006 23.46ZM7.27139 23.483C7.75322 23.6119 8.55049 23.7002 9.43357 23.7646C10.3306 23.83 11.3599 23.8734 12.3307 23.9023C13.3023 23.9312 14.2194 23.9456 14.8933 23.9528C15.2304 23.9564 15.5069 23.9582 15.6992 23.9591C15.7954 23.9595 15.8706 23.9598 15.9218 23.9599C15.9474 23.9599 15.967 23.96 15.9802 23.96C15.9869 23.96 15.9919 23.96 15.9953 23.96C15.997 23.96 15.9983 23.96 15.9992 23.96C15.9996 23.96 16 23.96 16.0002 23.96C16.0003 23.96 16.0004 23.96 16.0005 23.96C16.0005 23.96 16.0006 23.96 16.0006 23.46C16.0006 22.96 16.0006 22.96 16.0005 22.96C16.0005 22.96 16.0004 22.96 16.0003 22.96C16.0001 22.96 15.9998 22.96 15.9994 22.96C15.9987 22.96 15.9975 22.96 15.9958 22.96C15.9926 22.96 15.9878 22.96 15.9813 22.96C15.9684 22.96 15.9492 22.9599 15.924 22.9599C15.8736 22.9598 15.7992 22.9596 15.7039 22.9591C15.5133 22.9582 15.2389 22.9564 14.904 22.9528C14.2342 22.9457 13.3238 22.9313 12.3604 22.9027C11.3962 22.8741 10.383 22.8312 9.50632 22.7673C8.61566 22.7023 7.90793 22.6181 7.52975 22.517L7.27139 23.483ZM5.827 22.6499C6.22796 23.0467 6.72449 23.3334 7.26861 23.4823L7.53253 22.5177C7.1543 22.4142 6.80915 22.2149 6.53043 21.9391L5.827 22.6499ZM4.97969 21.2169C5.13421 21.7595 5.42604 22.253 5.827 22.6499L6.53043 21.9391C6.25172 21.6633 6.04886 21.3202 5.94145 20.9431L4.97969 21.2169ZM4.50058 15.7469C4.48917 17.5647 4.64581 19.3797 4.96851 21.1688L5.95263 20.9912C5.64087 19.2629 5.48953 17.5094 5.50056 15.7531L4.50058 15.7469ZM4.96851 10.3713C4.6483 12.1469 4.49166 13.9482 4.50058 15.7525L5.50057 15.7475C5.49195 14.0044 5.64328 12.2642 5.95263 10.5487L4.96851 10.3713ZM5.80302 8.85128C5.40113 9.2656 5.11569 9.77865 4.97553 10.3386L5.94561 10.5814C6.04303 10.1922 6.24145 9.83554 6.52081 9.54754L5.80302 8.85128ZM7.26446 7.97888C6.70903 8.13602 6.20492 8.43695 5.80302 8.85128L6.52081 9.54754C6.80018 9.25953 7.1506 9.05035 7.53669 8.94112L7.26446 7.97888ZM16.0006 8C16.0006 7.5 16.0005 7.5 16.0005 7.5C16.0004 7.5 16.0003 7.5 16.0002 7.5C16 7.5 15.9996 7.5 15.9992 7.5C15.9983 7.5 15.997 7.5 15.9953 7.5C15.9919 7.5 15.9869 7.50001 15.9802 7.50001C15.967 7.50003 15.9474 7.50006 15.9218 7.50011C15.8706 7.50023 15.7954 7.50045 15.6992 7.5009C15.5069 7.50181 15.2304 7.50361 14.8933 7.50722C14.2194 7.51443 13.3023 7.52885 12.3307 7.55772C11.3599 7.58657 10.3306 7.62996 9.43357 7.69539C8.55049 7.7598 7.75322 7.84812 7.27139 7.97698L7.52975 8.94302C7.90793 8.84188 8.61566 8.7577 9.50632 8.69274C10.383 8.62879 11.3962 8.58593 12.3604 8.55728C13.3238 8.52865 14.2342 8.51432 14.904 8.50716C15.2389 8.50358 15.5133 8.50179 15.7039 8.50089C15.7992 8.50045 15.8736 8.50022 15.924 8.50011C15.9492 8.50006 15.9684 8.50003 15.9813 8.50001C15.9878 8.50001 15.9926 8.5 15.9958 8.5C15.9975 8.5 15.9987 8.5 15.9994 8.5C15.9998 8.5 16.0001 8.5 16.0003 8.5C16.0004 8.5 16.0005 8.5 16.0005 8.5C16.0006 8.5 16.0006 8.5 16.0006 8ZM24.7192 7.93427C24.2413 7.81758 23.4477 7.73711 22.5644 7.67829C21.6682 7.61861 20.6397 7.57902 19.6691 7.55268C18.6979 7.52633 17.7811 7.51317 17.1073 7.50659C16.7704 7.5033 16.494 7.50165 16.3017 7.50082C16.2056 7.50041 16.1304 7.50021 16.0793 7.5001C16.0537 7.50005 16.0341 7.50003 16.0209 7.50001C16.0142 7.50001 16.0092 7.5 16.0058 7.5C16.0041 7.5 16.0028 7.5 16.0019 7.5C16.0015 7.5 16.0012 7.5 16.0009 7.5C16.0008 7.5 16.0007 7.5 16.0007 7.5C16.0006 7.5 16.0006 7.5 16.0006 8C16.0006 8.5 16.0006 8.5 16.0006 8.5C16.0007 8.5 16.0007 8.5 16.0008 8.5C16.001 8.5 16.0013 8.5 16.0017 8.5C16.0025 8.5 16.0037 8.5 16.0053 8.5C16.0086 8.5 16.0134 8.50001 16.0199 8.50001C16.0328 8.50003 16.052 8.50005 16.0772 8.5001C16.1277 8.5002 16.2021 8.50041 16.2974 8.50082C16.4881 8.50163 16.7627 8.50327 17.0976 8.50654C17.7676 8.51308 18.6783 8.52617 19.642 8.55232C20.6065 8.57848 21.6204 8.61764 22.498 8.67608C23.3885 8.73539 24.0998 8.81242 24.482 8.90573L24.7192 7.93427ZM26.1981 8.81128C25.7962 8.39695 25.2921 8.09602 24.7367 7.93888L24.4645 8.90112C24.8505 9.01035 25.201 9.21953 25.4803 9.50754L26.1981 8.81128ZM12.5 18.2902C12.5 19.4374 13.7355 20.16 14.7354 19.5975L14.2451 18.7259C13.9118 18.9134 13.5 18.6726 13.5 18.2902H12.5ZM12.5 12.7098V18.2902H13.5V12.7098H12.5ZM14.7354 11.4025C13.7355 10.84 12.5 11.5626 12.5 12.7098H13.5C13.5 12.3274 13.9118 12.0866 14.2451 12.2741L14.7354 11.4025ZM19.6957 14.1926L14.7354 11.4025L14.2451 12.2741L19.2054 15.0642L19.6957 14.1926ZM19.6957 16.8074C20.7151 16.2339 20.7151 14.7661 19.6957 14.1926L19.2054 15.0642C19.5452 15.2554 19.5452 15.7446 19.2054 15.9358L19.6957 16.8074ZM14.7354 19.5975L19.6957 16.8074L19.2054 15.9358L14.2451 18.7259L14.7354 19.5975Z" fill="url(#paint1_linear_3406_1469)"/>
<defs>
<linearGradient id="paint0_linear_3406_1469" x1="25.4296" y1="9.40546" x2="13.2775" y2="26.8332" gradientUnits="userSpaceOnUse">
<stop stop-color="#5390E3"/>
<stop offset="1" stop-color="#1357B3"/>
</linearGradient>
<linearGradient id="paint1_linear_3406_1469" x1="25.4296" y1="9.40546" x2="13.2775" y2="26.8332" gradientUnits="userSpaceOnUse">
<stop stop-color="#5390E3"/>
<stop offset="1" stop-color="#1357B3"/>
</linearGradient>
</defs>
</svg>
