<svg width="26" height="26" viewBox="0 0 26 26" fill="none" xmlns="http://www.w3.org/2000/svg">
<path d="M15.8515 9.09994V3.89998C15.8515 2.86564 15.434 1.87366 14.6908 1.14228C13.9476 0.410889 12.9397 0 11.8886 0L6.6048 11.6999V25.9998H21.5052C22.1424 26.0069 22.7606 25.7872 23.2461 25.381C23.7316 24.9749 24.0516 24.4098 24.1472 23.7898L25.9701 12.0899C26.0276 11.7173 26.002 11.3368 25.8952 10.9749C25.7885 10.6129 25.603 10.2781 25.3517 9.9937C25.1004 9.70929 24.7892 9.48205 24.4398 9.32772C24.0904 9.1734 23.7111 9.09567 23.3282 9.09994H15.8515ZM6.6048 25.9998H2.64192C1.94124 25.9998 1.26926 25.7259 0.773801 25.2383C0.278344 24.7507 0 24.0894 0 23.3999V14.2999C0 13.6104 0.278344 12.949 0.773801 12.4614C1.26926 11.9739 1.94124 11.6999 2.64192 11.6999H6.6048" fill="url(#paint0_linear_3406_344)"/>
<defs>
<linearGradient id="paint0_linear_3406_344" x1="24.1429" y1="2.36364" x2="2.36364" y2="24.3117" gradientUnits="userSpaceOnUse">
<stop stop-color="#5390E3"/>
<stop offset="1" stop-color="#1357B3"/>
</linearGradient>
</defs>
</svg>
