<svg width="30" height="29" viewBox="0 0 30 29" fill="none" xmlns="http://www.w3.org/2000/svg">
<path d="M14.3345 1.24889C14.544 0.603971 15.4564 0.603969 15.6659 1.24889L18.6149 10.3248C18.7086 10.6132 18.9774 10.8085 19.2806 10.8085H28.8236C29.5017 10.8085 29.7836 11.6762 29.235 12.0748L21.5146 17.684C21.2693 17.8622 21.1666 18.1782 21.2603 18.4666L24.2092 27.5425C24.4188 28.1874 23.6807 28.7237 23.1321 28.3251L15.4116 22.7159C15.1663 22.5377 14.8341 22.5377 14.5887 22.7159L6.86833 28.3251C6.31973 28.7237 5.5816 28.1874 5.79114 27.5425L8.74008 18.4666C8.83379 18.1782 8.73113 17.8622 8.48579 17.684L0.765376 12.0748C0.216776 11.6762 0.498718 10.8085 1.17682 10.8085H10.7198C11.023 10.8085 11.2918 10.6132 11.3855 10.3248L14.3345 1.24889Z" fill="url(#paint0_linear_3406_2174)"/>
<defs>
<linearGradient id="paint0_linear_3406_2174" x1="29.4002" y1="2.2545" x2="1.25474" y2="30.6181" gradientUnits="userSpaceOnUse">
<stop stop-color="#5390E3"/>
<stop offset="1" stop-color="#1357B3"/>
</linearGradient>
</defs>
</svg>
